<svg xmlns="http://www.w3.org/2000/svg" version="1.1" xmlns:xlink="http://www.w3.org/1999/xlink" xmlns:svgjs="http://svgjs.dev/svgjs" width="700" height="900" viewBox="0 0 1500 3784"><g transform="matrix(1,0,0,1,-2.3243501739282237,-4.614634146341132)"><svg viewBox="0 0 130 328" data-background-color="#282727" preserveAspectRatio="xMidYMid meet" height="3784" width="1500" xmlns="http://www.w3.org/2000/svg" xmlns:xlink="http://www.w3.org/1999/xlink"><g id="tight-bounds" transform="matrix(1,0,0,1,0.20144368174044303,0.39999999999997726)"><svg viewBox="0 0 129.5971126365191 327.2" height="327.2" width="129.5971126365191"><g><svg viewBox="0 0 242.1091954022988 611.2646117187438" height="327.2" width="129.5971126365191"><g transform="matrix(1,0,0,1,0,284.06461171874383)"><svg viewBox="0 0 242.1091954022988 327.2" height="327.2" width="242.1091954022988"><g id="textblocktransform"><svg viewBox="0 0 242.1091954022988 327.2" height="327.2" width="242.1091954022988" id="textblock"><g><svg viewBox="0 0 242.1091954022988 327.2" height="327.2" width="242.1091954022988"><g transform="matrix(1,0,0,1,0,0)"><svg width="242.1091954022988" viewBox="0.85 -34.4 25.75 34.8" height="327.2" data-palette-color="#a1daaf"><path d="M13.7-30.4L23.1-30.4 23.1-31.2 13.7-31.2Q13.7-31.2 13.7-31.2 13.7-31.2 13.7-31.2L13.7-31.2 4.35-31.2 4.35-30.4 13.7-30.4Q13.7-30.4 13.7-30.4 13.7-30.4 13.7-30.4L13.7-30.4ZM14.1-3.1L14.1-30.8 13.3-30.8 13.3-3.1 14.1-3.1ZM13.5-2.75L18.45 0.35 18.85-0.35 13.9-3.45Q13.85-3.5 13.73-3.5 13.6-3.5 13.5-3.45L13.5-3.45 8.6-0.35 9 0.35 13.9-2.75Q14-2.85 13.7-2.85 13.4-2.85 13.5-2.75L13.5-2.75ZM23.4-30.5L26.5-33.7 25.9-34.3 22.8-31.1Q22.75-31 22.73-30.85 22.7-30.7 22.75-30.6L22.75-30.6 25.85-26 26.55-26.4 23.45-31Q23.4-31.15 23.35-30.8 23.3-30.45 23.4-30.5L23.4-30.5ZM4-31L0.9-26.4 1.6-26 4.7-30.6Q4.8-30.7 4.78-30.85 4.75-31 4.65-31.1L4.65-31.1 1.55-34.3 0.95-33.7 4.05-30.5Q4.15-30.45 4.13-30.8 4.1-31.15 4-31L4-31ZM13.45-31.1L9.75-27.95 10.25-27.35 13.95-30.5Q14.05-30.6 13.7-30.6 13.35-30.6 13.45-30.5L13.45-30.5 17.2-27.35 17.7-27.95 13.95-31.1Q13.85-31.2 13.7-31.2 13.55-31.2 13.45-31.1L13.45-31.1ZM8.8 0.4L8.8 0.4 18.65 0.4Q18.9 0.4 19 0.2 19.1 0 19-0.2L19-0.2Q18.65-0.95 18.38-1.98 18.1-3 17.98-4.85 17.85-6.7 17.78-9.73 17.7-12.75 17.7-17.45L17.7-17.45Q17.7-20.95 17.75-23.43 17.8-25.9 17.85-27.65L17.85-27.65 17.45-27.25Q20.05-27.2 21.68-27 23.3-26.8 24.3-26.53 25.3-26.25 26-25.85L26-25.85Q26.25-25.75 26.43-25.88 26.6-26 26.6-26.2L26.6-26.2 26.6-34Q26.6-34.15 26.48-34.27 26.35-34.4 26.2-34.4L26.2-34.4 1.25-34.4Q1.1-34.4 0.98-34.27 0.85-34.15 0.85-34L0.85-34 0.85-26.2Q0.85-26 1.05-25.88 1.25-25.75 1.45-25.85L1.45-25.85Q2.15-26.25 3.13-26.53 4.1-26.8 5.75-27 7.4-27.2 10-27.25L10-27.25 9.6-27.65Q9.7-25.9 9.73-23.43 9.75-20.95 9.75-17.45L9.75-17.45Q9.75-12.75 9.68-9.73 9.6-6.7 9.47-4.85 9.35-3 9.1-1.98 8.85-0.95 8.45-0.2L8.45-0.2Q8.35 0 8.47 0.2 8.6 0.4 8.8 0.4ZM18.65-0.4L8.8-0.4 9.15 0.2Q9.55-0.55 9.8-1.63 10.05-2.7 10.23-4.58 10.4-6.45 10.48-9.55 10.55-12.65 10.55-17.45L10.55-17.45Q10.55-20.95 10.53-23.43 10.5-25.9 10.4-27.65L10.4-27.65Q10.4-27.85 10.28-27.95 10.15-28.05 10-28.05L10-28.05Q7.3-28 5.6-27.78 3.9-27.55 2.85-27.25 1.8-26.95 1.05-26.55L1.05-26.55 1.65-26.2 1.65-34 1.25-33.6 26.2-33.6 25.8-34 25.8-26.2 26.4-26.55Q25.65-26.95 24.6-27.25 23.55-27.55 21.85-27.78 20.15-28 17.45-28.05L17.45-28.05Q17.3-28.05 17.18-27.95 17.05-27.85 17.05-27.65L17.05-27.65Q17-25.9 16.95-23.43 16.9-20.95 16.9-17.45L16.9-17.45Q16.9-12.65 16.98-9.55 17.05-6.45 17.23-4.58 17.4-2.7 17.68-1.63 17.95-0.55 18.3 0.2L18.3 0.2 18.65-0.4Z" opacity="1" transform="matrix(1,0,0,1,0,0)" fill="#a1daaf" class="wordmark-text-0" data-fill-palette-color="primary" id="text-0"></path></svg></g></svg></g></svg></g></svg></g><g transform="matrix(1,0,0,1,46.24285632183907,0)"><svg viewBox="0 0 149.62348275862067 257.88861171874385" height="257.88861171874385" width="149.62348275862067"><g><svg xmlns="http://www.w3.org/2000/svg" xmlns:xlink="http://www.w3.org/1999/xlink" version="1.1" x="0" y="0" viewBox="21.679106830508616 1 56.85827385947762 98" enable-background="new 0 0 100 100" xml:space="preserve" height="257.88861171874385" width="149.62348275862067" class="icon-icon-0" data-fill-palette-color="accent" id="icon-0"><g fill="#a1daaf" data-fill-palette-color="accent"><path fill-rule="evenodd" clip-rule="evenodd" d="M30.545 28.822C29.38 36.039 30.875 43.672 37.045 47.863 30.758 19.81 45.756 8.664 59.646 1 43.466 24.046 76.542 24.644 78.423 51.13 80.028 73.71 64.507 91.317 46.639 99 46.845 76.175 24.089 73.067 21.801 54.397 20.905 47.094 25.062 33.766 30.545 28.822" fill="#a1daaf" data-fill-palette-color="accent"></path></g></svg></g></svg></g><g></g></svg></g><defs></defs></svg><rect width="129.5971126365191" height="327.2" fill="none" stroke="none" visibility="hidden"></rect></g></svg></g></svg>